Coordinates
version=1
nRows=60
nColumns=12
inDegrees=yes

Units are S.I. units (second, meters, Newtons, ...)
Angles are in degrees

endheader
time	SC_y	SC_z	SC_x	AC_y	AC_z	AC_x	GH_y	GH_z	GH_yy	EL_x	PS_y
       0.0              -13.82          27.51          35.66          34.47         -13.21          -19.4           76.4          48.43         -73.66          55.01          61.77
   0.01785              -13.83          27.51          35.66          34.47         -13.21          -19.4          76.38          48.43         -73.65          55.01          61.78
    0.0357              -13.83           27.5          35.65          34.47          -13.2          -19.4          76.35          48.42         -73.65          55.02          61.78
   0.05355              -13.84           27.5          35.64          34.47          -13.2          -19.4          76.33          48.42         -73.64          55.02          61.79
    0.0714              -13.85           27.5          35.64          34.47          -13.2          -19.4          76.31          48.41         -73.63          55.02          61.79
   0.08925              -13.85           27.5          35.63          34.47          -13.2          -19.4          76.28          48.41         -73.62          55.02           61.8
    0.1071              -13.86           27.5          35.62          34.48          -13.2          -19.4          76.25           48.4         -73.61          55.03          61.81
    0.1249              -13.87           27.5          35.62          34.48         -13.19          -19.4          76.22           48.4          -73.6          55.03          61.81
    0.1428              -13.88           27.5          35.61          34.48         -13.19          -19.4          76.19          48.39         -73.59          55.03          61.82
    0.1606              -13.89           27.5           35.6          34.48         -13.19          -19.4          76.16          48.38         -73.58          55.04          61.83
    0.1785               -13.9           27.5          35.59          34.49         -13.18         -19.39          76.12          48.38         -73.57          55.04          61.84
    0.1963              -13.91           27.5          35.58          34.49         -13.18         -19.39          76.08          48.37         -73.55          55.05          61.85
    0.2142              -13.92           27.5          35.57          34.49         -13.18         -19.39          76.04          48.36         -73.54          55.05          61.86
     0.232              -13.93           27.5          35.56           34.5         -13.17         -19.39          75.99          48.35         -73.52          55.06          61.87
    0.2499              -13.94          27.49          35.55           34.5         -13.17         -19.39          75.94          48.34          -73.5          55.06          61.88
    0.2677              -13.96          27.49          35.53           34.5         -13.16         -19.38          75.89          48.33         -73.48          55.07          61.89
    0.2856              -13.97          27.49          35.52          34.51         -13.16         -19.38          75.83          48.32         -73.46          55.08          61.91
    0.3034              -13.99          27.49           35.5          34.51         -13.15         -19.38          75.76          48.31         -73.44          55.08          61.92
    0.3213              -14.01          27.49          35.48          34.52         -13.14         -19.38          75.69          48.29         -73.42          55.09          61.94
    0.3391              -14.03          27.49          35.46          34.52         -13.14         -19.37          75.61          48.28         -73.39           55.1          61.96
     0.357              -14.05          27.48          35.44          34.53         -13.13         -19.37          75.53          48.26         -73.36          55.11          61.98
    0.3748              -14.07          27.48          35.42          34.53         -13.12         -19.37          75.44          48.24         -73.33          55.12           62.0
    0.3927               -14.1          27.48          35.39          34.54         -13.11         -19.36          75.33          48.22         -73.29          55.13          62.03
    0.4105              -14.13          27.48          35.37          34.55          -13.1         -19.36          75.22           48.2         -73.25          55.14          62.05
    0.4284              -14.16          27.47          35.33          34.56         -13.09         -19.35          75.09          48.17         -73.21          55.16          62.08
    0.4462               -14.2          27.47           35.3          34.57         -13.08         -19.35          74.95          48.14         -73.16          55.17          62.12
    0.4641              -14.24          27.46          35.26          34.58         -13.06         -19.34          74.79          48.11         -73.11          55.19          62.15
    0.4819              -14.28          27.46          35.22          34.59         -13.05         -19.33          74.62          48.08         -73.04          55.21           62.2
    0.4998              -14.34          27.46          35.16          34.61         -13.03         -19.33          74.42          48.04         -72.97          55.23          62.24
    0.5176               -14.4          27.45          35.11          34.62         -13.01         -19.32          74.19          47.99          -72.9          55.26           62.3
    0.5355              -14.46          27.44          35.04          34.64         -12.98         -19.31          73.93          47.94          -72.8          55.29          62.36
    0.5533              -14.54          27.43          34.97          34.66         -12.96          -19.3          73.63          47.88          -72.7          55.32          62.43
    0.5712              -14.63          27.43          34.88          34.69         -12.92         -19.28          73.28          47.81         -72.58          55.36          62.51
     0.589              -14.73          27.42          34.78          34.71         -12.89         -19.27          72.88          47.73         -72.44          55.41          62.61
    0.6069              -14.85           27.4          34.66          34.75         -12.84         -19.25          72.41          47.64         -72.28          55.46          62.72
    0.6247               -15.0          27.39          34.53          34.79         -12.79         -19.23          71.86          47.53         -72.09          55.52          62.85
    0.6426              -15.17          27.37          34.36          34.83         -12.73          -19.2           71.2           47.4         -71.86          55.59          63.01
    0.6604              -15.37          27.35          34.16          34.89         -12.66         -19.17          70.41          47.24         -71.59          55.68          63.19
    0.6783              -15.62          27.33          33.93          34.95         -12.57         -19.13          69.46          47.05         -71.26          55.79          63.42
    0.6961              -15.92           27.3          33.63          35.04         -12.47         -19.09          68.29          46.82         -70.85          55.92           63.7
     0.714              -16.29          27.26          33.27          35.14         -12.34         -19.03          66.86          46.53         -70.35          56.08          64.04
    0.7318              -16.76          27.21          32.83          35.26         -12.17         -18.96          65.06          46.17         -69.73          56.28          64.46
    0.7497              -17.34          27.16          32.26          35.42         -11.97         -18.87          62.81          45.72         -68.95          56.53           65.0
    0.7675              -18.08          27.08          31.54          35.62          -11.7         -18.76          59.93          45.15         -67.95          56.86          65.68
    0.7854              -19.03          26.99          30.62          35.88         -11.37         -18.62          56.26          44.42         -66.68          57.27          66.55
    0.8032              -20.25          26.87          29.45          36.21         -10.94         -18.43          51.54          43.48         -65.04           57.8          67.67
    0.8211              -21.81          26.71          27.94          36.64         -10.39          -18.2          45.52          42.28         -62.95          58.47           69.1
    0.8389              -23.77          26.52          26.04          37.17         -9.696          -17.9          37.95          40.76         -60.32          59.32          70.89
    0.8568              -26.16          26.28          23.74          37.82         -8.853         -17.54          28.72          38.92         -57.12          60.35          73.08
    0.8746              -28.93          26.01          21.06          38.57         -7.875         -17.12          18.02          36.79         -53.41          61.55          75.62
    0.8925              -31.93          25.71          18.16          39.38         -6.817         -16.67          6.434          34.48         -49.39          62.85          78.37
    0.9103              -34.92          25.41          15.27          40.19         -5.759         -16.21          -5.15          32.17         -45.37          64.15          81.11
    0.9282              -37.69          25.14          12.59          40.95         -4.782         -15.79         -15.85          30.04         -41.66          65.35          83.65
     0.946              -40.08           24.9          10.28          41.59         -3.938         -15.43         -25.08           28.2         -38.46          66.38          85.84
    0.9639              -42.04           24.7          8.389          42.13         -3.246         -15.14         -32.65          26.69         -35.83          67.23          87.64
    0.9817               -43.6          24.55          6.883          42.55         -2.696          -14.9         -38.68          25.49         -33.74           67.9          89.07
    0.9996              -44.82          24.43          5.703          42.88         -2.265         -14.72         -43.39          24.55         -32.11          68.43          90.18
     1.017              -45.77          24.33          4.784          43.14          -1.93         -14.57         -47.07          23.81         -30.83          68.84          91.06
     1.035              -46.51          24.26          4.066          43.34         -1.668         -14.46         -49.94          23.24         -29.84          69.16          91.74
     1.053               -47.1           24.2          3.502           43.5         -1.461         -14.37          -52.2          22.79         -29.05          69.42          92.27
